<svg width="26" height="20" viewBox="0 0 26 20" xmlns="http://www.w3.org/2000/svg"><title>menu_burger_unbadged</title><g fill="#FFF" fill-rule="evenodd"><path d="M26 5.5c0 .406-.146.758-.437 1.055-.29.297-.623.445-.997.445H5.434c-.374 0-.706-.148-.997-.445C4.147 6.258 4 5.905 4 5.5c0-.39.146-.738.437-1.043.29-.305.623-.457.997-.457h19.132c.374 0 .706.152.997.457.29.305.437.652.437 1.043zM26 17.5c0 .406-.146.758-.437 1.055-.29.297-.623.445-.997.445H5.434c-.374 0-.706-.148-.997-.445-.29-.297-.437-.65-.437-1.055 0-.39.146-.738.437-1.043.29-.305.623-.457.997-.457h19.132c.374 0 .706.152.997.457.29.305.437.652.437 1.043zM26 11.5c0 .406-.146.758-.437 1.055-.29.297-.623.445-.997.445H5.434c-.374 0-.706-.148-.997-.445-.29-.297-.437-.65-.437-1.055 0-.39.146-.738.437-1.043.29-.305.623-.457.997-.457h19.132c.374 0 .706.152.997.457.29.305.437.652.437 1.043z"/></g></svg>